<svg xmlns="http://www.w3.org/2000/svg" viewBox="0 0 312 308"><defs><style>.cls-1{fill:#eeeeef;}</style></defs><g id="Layer_2" data-name="Layer 2"><g id="Layer_1-2" data-name="Layer 1"><path class="cls-1" d="M187,0V83.71c-.86-.26-1.72-.54-2.57-.83l-.07,0L182,82l-.15-.06c-.72-.27-1.44-.55-2.15-.84l-.71-.29c-.76-.32-1.52-.64-2.27-1s-1.32-.6-2-.92c-1-.49-2.06-1-3.07-1.56-.66-.34-1.32-.7-2-1.07s-1.25-.71-1.86-1.08-.92-.55-1.38-.84c-1.06-.65-2.1-1.33-3.13-2q-.63-.41-1.26-.87c-1-.71-2-1.45-3-2.21-.41-.31-.81-.63-1.21-1-1-.79-2-1.61-2.95-2.47-.41-.35-.81-.71-1.21-1.07l-.34-.32c-.83-.75-1.63-1.52-2.42-2.31l-1-1c-.93-1-1.85-1.94-2.74-2.94q-.41-.45-.78-.9c-.39-.43-.76-.87-1.12-1.31l-.24-.28c-.45-.54-.89-1.09-1.33-1.65l-.53-.69c-.45-.57-.88-1.15-1.3-1.73a.47.47,0,0,1-.09-.12q-.79-1.06-1.53-2.16c-.51-.74-1-1.48-1.48-2.24-.39-.6-.77-1.21-1.14-1.82a1.18,1.18,0,0,1-.11-.19l-.42-.7c-.37-.63-.74-1.26-1.09-1.9s-.79-1.44-1.17-2.16c-.06-.12-.13-.24-.18-.36-.39-.75-.77-1.51-1.13-2.27s-.77-1.63-1.13-2.46-.71-1.64-1-2.47l0,0c-.32-.81-.64-1.62-.94-2.44l-.06-.17c-.31-.82-.6-1.65-.87-2.48s-.57-1.73-.83-2.61A87.46,87.46,0,0,1,125,0H0V308H125V224.29c.86.26,1.72.54,2.57.83l.07,0c.8.27,1.59.56,2.38.85l.15.06c.72.27,1.44.55,2.15.84l.71.29c.76.32,1.52.65,2.27,1s1.32.6,2,.92c1,.5,2.06,1,3.07,1.56.66.34,1.32.7,2,1.07l1.86,1.08,1.38.84c1.06.66,2.1,1.34,3.13,2.05q.63.41,1.26.87l.05,0c1,.71,2,1.43,2.94,2.17l1.21,1c1,.8,2,1.62,2.95,2.47l1.21,1.07.34.32c.82.75,1.63,1.52,2.42,2.31.34.33.67.67,1,1,.93,1,1.85,1.94,2.74,2.94l.79.9c.38.43.75.87,1.11,1.31l.24.28c.45.54.89,1.09,1.33,1.65l.53.69c.45.57.88,1.15,1.3,1.73a.47.47,0,0,1,.09.12q.79,1.07,1.53,2.16c.51.74,1,1.48,1.48,2.24.39.6.77,1.21,1.14,1.82a1.18,1.18,0,0,1,.11.19l.42.7c.37.63.74,1.26,1.09,1.9s.79,1.43,1.17,2.16c.06.12.13.24.18.36.39.75.77,1.51,1.13,2.27s.77,1.63,1.13,2.46.72,1.64,1,2.47c0,0,0,0,0,0,.33.81.64,1.62.94,2.44a.7.7,0,0,1,.06.17c.31.82.6,1.65.87,2.48s.57,1.73.83,2.61A87.46,87.46,0,0,1,187,308H312V0ZM287,283H209.19A112,112,0,0,0,187,237.38c-.64-.79-1.29-1.58-2-2.35s-1.33-1.55-2-2.3c-1.3-1.44-2.64-2.86-4-4.23-.64-.64-1.28-1.27-1.94-1.89l-.24-.24c-.56-.53-1.13-1.05-1.7-1.57l-.54-.49c-.41-.37-.83-.74-1.25-1.09-1.08-1-2.19-1.89-3.31-2.79-.55-.44-1.1-.88-1.66-1.31l-.8-.62c-.46-.35-.92-.7-1.38-1s-.7-.53-1.06-.78-1-.72-1.51-1.07l-.9-.63c-.63-.43-1.27-.85-1.91-1.27l-.51-.33c-.55-.36-1.1-.71-1.66-1l-1.24-.76c-.78-.47-1.56-.93-2.35-1.38l-2-1.09-.66-.36c-.68-.36-1.36-.72-2.05-1.06l-.38-.2q-3-1.53-6.15-2.88l-1.21-.51-.74-.3-1.44-.58q-4.47-1.75-9.11-3.12c-.48-.15-1-.29-1.46-.42-1.61-.46-3.25-.88-4.89-1.26l-1.51-.34-1.52-.32q-3-.62-6.15-1.08-1.32-.19-2.67-.36c-2.72-.32-5.46-.56-8.24-.69l-1.12,0c-1.26-.05-2.52-.07-3.79-.08H50v25h50V283H25V25h77.81A112,112,0,0,0,125,70.62c.64.79,1.29,1.58,2,2.35s1.33,1.55,2,2.3c1.3,1.45,2.63,2.86,4,4.23.64.64,1.28,1.27,1.94,1.89l.24.24c.56.53,1.13,1.05,1.7,1.57l.54.49c.41.37.83.74,1.25,1.09,1.08,1,2.18,1.89,3.31,2.79.55.44,1.1.88,1.66,1.31.26.22.53.43.8.62.46.35.92.7,1.38,1s.7.53,1.06.78,1,.72,1.51,1.07l.9.63c.63.43,1.27.85,1.91,1.27l.51.33c.55.36,1.1.71,1.66,1l1.24.76c.77.47,1.56.93,2.35,1.38l2,1.09.66.36c.68.36,1.36.72,2.05,1.06,2.14,1.1,4.32,2.12,6.53,3.08l1.21.51.74.3,1.44.58q4.47,1.75,9.11,3.12c.48.15,1,.29,1.46.42q2.41.69,4.89,1.26l1.51.34,1.52.32q3,.63,6.15,1.08,1.32.2,2.67.36,4.07.5,8.24.69l1.12,0c1.26,0,2.52.07,3.79.08h50v-25H212V25h75Z"/></g></g></svg>