<?xml version="1.0" encoding="utf-8"?>
<!-- Generator: Adobe Illustrator 26.0.1, SVG Export Plug-In . SVG Version: 6.00 Build 0)  -->
<svg version="1.1" id="Layer_1" xmlns="http://www.w3.org/2000/svg" xmlns:xlink="http://www.w3.org/1999/xlink" x="0px" y="0px"
	 viewBox="0 0 1080 1920" style="enable-background:new 0 0 1080 1920;" xml:space="preserve">
<g>
	<path d="M297,796c0,0-128.8-37.9-112.7,144.9v377.2c0,0,10.3,81.6,112.7,70.1V796z"/>
	<path d="M182.9,1400.9c0,0,20.9,71.3,114.1,62.1v93.1c0,0-105.8-4.6-114.1-57.5V1400.9z"/>
	<path d="M617.8,1016.4c0,0-236.1,172.5-230.8,213.1c0,0-4.6,69.8,34.5,88.2l186.3-150.6L617.8,1016.4z"/>
	<path d="M620.7,1158.2c0,0,58.1-127.1,35.6-154.7L378.1,784.5v-44.3l302.4,237.5C680.5,977.7,729.9,1001.3,620.7,1158.2z"/>
	<path d="M620.7,1158.2c0,0,139.7-167.3,104.6-189.7L378.1,704.6v-64.4L751.2,938C751.2,938,822.5,976.6,620.7,1158.2z"/>
	<path d="M620.7,1158.2l176.5-173.6c0,0,29.3-28.7-4.6-55.2L378.1,598.2V543l452.5,366.3c0,0,37.9,39.1,0,78.2L620.7,1158.2z"/>
</g>
</svg>
