<svg width="100" height="100" viewBox="0 0 100 100" fill="none" xmlns="http://www.w3.org/2000/svg">
<rect width="100" height="100" rx="4" fill="#191919"/>
<path d="M56.359 18V35.3943C56.1826 35.3403 56.0062 35.2821 55.8318 35.2218H55.8174L55.3333 35.039L55.3026 35.0265C55.1549 34.9704 55.0072 34.9122 54.8615 34.8519L54.7159 34.7917C54.56 34.7252 54.4041 34.6587 54.2503 34.5839C54.0964 34.5091 53.9795 34.4592 53.84 34.3927C53.6349 34.2909 53.4174 34.1849 53.2103 34.0686C53.0749 33.9979 52.9395 33.9231 52.8 33.8462C52.6605 33.7694 52.5436 33.6987 52.4185 33.6218C52.2933 33.5449 52.2297 33.5075 52.1354 33.4473C51.9179 33.3122 51.7046 33.1709 51.4933 33.0317C51.4072 32.9749 51.321 32.9146 51.2349 32.8509C51.0297 32.7034 50.8246 32.5496 50.6195 32.3917C50.5354 32.3273 50.4533 32.2608 50.3713 32.1839C50.1662 32.0197 49.961 31.8494 49.7662 31.6706C49.6821 31.5979 49.6 31.5231 49.5179 31.4483L49.4482 31.3818C49.2779 31.226 49.1138 31.066 48.9518 30.9018L48.7467 30.694C48.5559 30.4862 48.3672 30.2909 48.1846 30.0831C48.1285 30.0208 48.0752 29.9584 48.0246 29.8961C47.9446 29.8068 47.8687 29.7153 47.7949 29.6239L47.7456 29.5657C47.6533 29.4535 47.5631 29.3392 47.4728 29.2229L47.3641 29.0795C47.2718 28.961 47.1836 28.8405 47.0974 28.72C47.09 28.7127 47.0838 28.7043 47.079 28.6951C46.9709 28.5482 46.8663 28.3986 46.7651 28.2462C46.6605 28.0925 46.56 27.9387 46.4615 27.7808C46.3815 27.6561 46.3036 27.5294 46.2277 27.4026C46.219 27.3902 46.2114 27.377 46.2051 27.3631L46.119 27.2177C46.0431 27.0868 45.9672 26.9558 45.8954 26.8229C45.8236 26.6899 45.7333 26.5236 45.6554 26.374C45.6431 26.3491 45.6287 26.3242 45.6185 26.2992C45.5385 26.1434 45.4605 25.9855 45.3867 25.8275C45.3128 25.6696 45.2287 25.4888 45.1549 25.3164C45.081 25.1439 45.0092 24.9756 44.9497 24.8031C44.8841 24.6348 44.8185 24.4665 44.7569 24.2961L44.7446 24.2608C44.681 24.0904 44.6215 23.9179 44.5662 23.7455C44.5108 23.573 44.4492 23.386 44.3959 23.2031C43.8966 21.515 43.6423 19.7623 43.641 18L18 18V82H43.641V64.6057C43.8174 64.6597 43.9938 64.7179 44.1682 64.7782H44.1826C44.3467 64.8343 44.5087 64.8945 44.6708 64.9548L44.7015 64.9673C44.8492 65.0234 44.9969 65.0816 45.1426 65.1418L45.2882 65.2021C45.4441 65.2686 45.6 65.3371 45.7538 65.4099C45.9077 65.4826 46.0246 65.5345 46.1641 65.601C46.3692 65.7049 46.5867 65.8088 46.7938 65.9252C46.9292 65.9958 47.0646 66.0707 47.2041 66.1475L47.5856 66.3719L47.8687 66.5465C48.0862 66.6836 48.2995 66.8249 48.5108 66.9725C48.5969 67.0293 48.6831 67.0895 48.7692 67.1532H48.7795C48.9846 67.3008 49.1897 67.4504 49.3826 67.6042L49.6308 67.8119C49.8359 67.9782 50.041 68.1486 50.2359 68.3252L50.4841 68.5475L50.5538 68.614C50.7221 68.7699 50.8882 68.9299 51.0503 69.094C51.12 69.1626 51.1877 69.2332 51.2554 69.3018C51.4462 69.5096 51.6349 69.7049 51.8174 69.9127L51.9795 70.0997C52.0574 70.1891 52.1333 70.2805 52.2072 70.3719L52.2564 70.4301C52.3487 70.5423 52.439 70.6566 52.5292 70.773L52.6379 70.9164C52.7303 71.0348 52.8185 71.1553 52.9046 71.2758C52.912 71.2831 52.9183 71.2915 52.9231 71.3008C53.0311 71.449 53.1357 71.5986 53.2369 71.7496C53.3415 71.9034 53.4421 72.0571 53.5405 72.2151C53.6205 72.3397 53.6985 72.4665 53.7744 72.5932C53.7831 72.6057 53.7906 72.6189 53.7969 72.6327L53.8831 72.7782C53.959 72.9091 54.0349 73.04 54.1067 73.173C54.1785 73.306 54.2687 73.4701 54.3467 73.6218C54.359 73.6468 54.3733 73.6717 54.3836 73.6966C54.4636 73.8525 54.5415 74.0104 54.6154 74.1683C54.6892 74.3262 54.7733 74.507 54.8472 74.6795C54.921 74.8519 54.9949 75.0203 55.0523 75.1927C55.12 75.361 55.1836 75.5293 55.2451 75.6997C55.2507 75.7109 55.2549 75.7228 55.2574 75.7351C55.321 75.9055 55.3805 76.0779 55.4359 76.2504C55.4913 76.4229 55.5528 76.6099 55.6062 76.7927C56.1052 78.4823 56.3588 80.2364 56.359 82H82V18H56.359ZM76.8718 76.8052H60.9108C60.1292 73.3343 58.572 70.0913 56.359 67.3257C56.2277 67.1616 56.0944 66.9974 55.9487 66.8374C55.8031 66.6774 55.6759 66.5153 55.5385 66.3595C55.2718 66.0603 54.9969 65.7652 54.7179 65.4805C54.5867 65.3475 54.4554 65.2166 54.32 65.0878L54.2708 65.0379C54.1559 64.9278 54.039 64.8197 53.9221 64.7117L53.8113 64.6099C53.7272 64.533 53.641 64.4561 53.5549 64.3834C53.3333 64.1756 53.1056 63.9906 52.8759 63.8036C52.7631 63.7122 52.6503 63.6208 52.5354 63.5314L52.3713 63.4026C52.2769 63.3299 52.1826 63.2571 52.0882 63.1948C51.9938 63.1325 51.9446 63.0847 51.8708 63.0327C51.7969 62.9808 51.6656 62.8831 51.561 62.8104L51.3764 62.6795C51.2472 62.5901 51.1159 62.5029 50.9846 62.4156L50.88 62.347C50.7672 62.2722 50.6544 62.1995 50.5395 62.1392L50.2851 61.9813C50.1251 61.8836 49.9651 61.7881 49.8031 61.6945L49.3928 61.4681L49.2574 61.3932C49.118 61.3184 48.9785 61.2436 48.8369 61.173L48.759 61.1314C48.3487 60.9195 47.9282 60.72 47.4974 60.533L47.2492 60.427L47.0974 60.3647L46.8021 60.2442C46.1908 60.0017 45.5679 59.7856 44.9333 59.5958C44.8349 59.5647 44.7282 59.5356 44.6338 59.5086C44.3036 59.413 43.9672 59.3257 43.6308 59.2468L43.321 59.1761L43.0092 59.1096C42.599 59.0237 42.1785 58.9489 41.7477 58.8852C41.5672 58.8589 41.3846 58.8339 41.2 58.8104C40.6421 58.7439 40.08 58.694 39.5097 58.667H39.28C39.0215 58.6566 38.7631 58.6525 38.5026 58.6504H28.2564V63.8452H38.5128V76.8052H23.1282V23.1948H39.0892C39.8708 26.6657 41.428 29.9087 43.641 32.6743C43.7723 32.8384 43.9056 33.0026 44.0513 33.1626C44.1969 33.3226 44.3241 33.4847 44.4615 33.6405C44.7282 33.9418 45.001 34.2348 45.2821 34.5195C45.4133 34.6525 45.5446 34.7834 45.68 34.9122L45.7292 34.9621C45.8441 35.0722 45.961 35.1803 46.078 35.2883L46.1887 35.3901C46.2728 35.467 46.359 35.5439 46.4451 35.6166C46.6667 35.8244 46.8923 36.0094 47.1241 36.1964C47.2369 36.2878 47.3497 36.3792 47.4646 36.4686C47.5179 36.5143 47.5733 36.5579 47.6287 36.5974C47.7231 36.6701 47.8174 36.7429 47.9118 36.8052C48.0062 36.8675 48.0554 36.9153 48.1292 36.9673C48.2031 37.0192 48.3344 37.1169 48.439 37.1896L48.6236 37.3205C48.7528 37.4099 48.8841 37.4971 49.0154 37.5844L49.12 37.653C49.2328 37.7278 49.3456 37.8005 49.4605 37.8608L49.7149 38.0187C49.8728 38.1164 50.0349 38.2119 50.1969 38.3055L50.6072 38.5319L50.7426 38.6068C50.8821 38.6816 51.0215 38.7564 51.1631 38.827C51.6021 39.0556 52.0492 39.2675 52.5026 39.467L52.7508 39.573L52.9026 39.6353L53.1979 39.7558C53.8092 39.9983 54.4321 40.2144 55.0667 40.4042C55.1651 40.4353 55.2718 40.4644 55.3662 40.4914C55.6957 40.587 56.0301 40.6743 56.3692 40.7532L56.679 40.8239L56.9908 40.8904C57.401 40.9777 57.8215 41.0525 58.2523 41.1148C58.4328 41.1425 58.6154 41.1674 58.8 41.1896C59.3566 41.2589 59.92 41.3067 60.4903 41.333H60.72C60.9785 41.333 61.2369 41.3475 61.4974 41.3496H71.7538V36.1548H61.4872V23.1948H76.8718V76.8052Z" fill="#F5F5F5"/>
</svg>
